<svg xmlns="http://www.w3.org/2000/svg" xmlns:xlink="http://www.w3.org/1999/xlink" width="500" zoomAndPan="magnify" viewBox="0 0 375 374.999991" height="500" preserveAspectRatio="xMidYMid meet" version="1.0"><path fill="#ffffff" d="M 63.164062 140.882812 C 63.792969 141.023438 64.425781 141.136719 65.0625 141.214844 C 65.703125 141.292969 66.34375 141.339844 66.984375 141.355469 C 67.628906 141.371094 68.269531 141.355469 68.914062 141.308594 C 69.554688 141.261719 70.191406 141.179688 70.824219 141.070312 C 71.457031 140.957031 72.085938 140.816406 72.703125 140.640625 C 73.324219 140.46875 73.933594 140.261719 74.53125 140.03125 C 75.128906 139.796875 75.714844 139.53125 76.289062 139.238281 C 76.863281 138.945312 77.417969 138.628906 77.960938 138.277344 C 78.5 137.929688 79.023438 137.558594 79.527344 137.15625 C 80.03125 136.757812 80.515625 136.335938 80.976562 135.886719 C 81.4375 135.441406 81.878906 134.96875 82.292969 134.480469 C 82.707031 133.988281 83.097656 133.476562 83.460938 132.949219 C 83.828125 132.417969 84.164062 131.871094 84.472656 131.308594 C 84.785156 130.742188 85.066406 130.167969 85.320312 129.574219 C 85.570312 128.984375 85.792969 128.382812 85.988281 127.765625 C 86.179688 127.152344 86.34375 126.53125 86.472656 125.902344 C 87.917969 121.527344 90.074219 117.535156 92.953125 113.9375 C 97.847656 107.878906 106.566406 100.960938 123.613281 100.960938 C 139.648438 100.960938 150.851562 106.199219 157.332031 113.160156 C 163.53125 119.828125 167.417969 130.222656 164.820312 145.328125 C 163.5 152.941406 159.757812 157.445312 151.957031 161.796875 C 145.179688 165.574219 137.613281 168.105469 128.011719 171.308594 C 124.140625 172.597656 119.945312 173.996094 115.347656 175.628906 C 100.925781 180.753906 83.570312 187.996094 70.097656 202.199219 C 55.925781 217.164062 48 237.597656 48 265.148438 C 48 265.785156 48.03125 266.417969 48.09375 267.050781 C 48.15625 267.683594 48.25 268.3125 48.371094 268.9375 C 48.496094 269.5625 48.652344 270.179688 48.835938 270.785156 C 49.019531 271.394531 49.234375 271.992188 49.476562 272.582031 C 49.722656 273.167969 49.992188 273.742188 50.292969 274.304688 C 50.59375 274.867188 50.917969 275.410156 51.273438 275.9375 C 51.625 276.46875 52.003906 276.980469 52.410156 277.46875 C 52.8125 277.960938 53.238281 278.433594 53.6875 278.882812 C 54.136719 279.332031 54.609375 279.757812 55.101562 280.164062 C 55.59375 280.566406 56.101562 280.945312 56.632812 281.296875 C 57.160156 281.652344 57.707031 281.980469 58.265625 282.277344 C 58.828125 282.578125 59.402344 282.851562 59.988281 283.09375 C 60.578125 283.335938 61.175781 283.550781 61.785156 283.734375 C 62.394531 283.921875 63.011719 284.074219 63.632812 284.199219 C 64.257812 284.324219 64.886719 284.417969 65.519531 284.476562 C 66.152344 284.539062 66.789062 284.570312 67.421875 284.570312 L 183.964844 284.570312 C 184.601562 284.570312 185.238281 284.539062 185.871094 284.476562 C 186.503906 284.417969 187.132812 284.324219 187.753906 284.199219 C 188.378906 284.074219 188.996094 283.921875 189.605469 283.734375 C 190.214844 283.550781 190.8125 283.335938 191.398438 283.09375 C 191.988281 282.851562 192.5625 282.578125 193.121094 282.277344 C 193.683594 281.980469 194.230469 281.652344 194.757812 281.296875 C 195.285156 280.945312 195.796875 280.566406 196.289062 280.164062 C 196.78125 279.757812 197.25 279.332031 197.699219 278.882812 C 198.152344 278.433594 198.578125 277.960938 198.980469 277.46875 C 199.382812 276.980469 199.761719 276.46875 200.117188 275.9375 C 200.46875 275.410156 200.796875 274.867188 201.097656 274.304688 C 201.398438 273.742188 201.667969 273.167969 201.910156 272.582031 C 202.15625 271.992188 202.367188 271.394531 202.554688 270.785156 C 202.738281 270.179688 202.894531 269.5625 203.015625 268.9375 C 203.140625 268.3125 203.234375 267.683594 203.296875 267.050781 C 203.359375 266.417969 203.390625 265.785156 203.390625 265.148438 C 203.390625 264.511719 203.359375 263.878906 203.296875 263.246094 C 203.234375 262.609375 203.140625 261.984375 203.015625 261.359375 C 202.894531 260.734375 202.738281 260.117188 202.554688 259.507812 C 202.367188 258.902344 202.15625 258.300781 201.910156 257.714844 C 201.667969 257.128906 201.398438 256.554688 201.097656 255.992188 C 200.796875 255.429688 200.46875 254.886719 200.117188 254.355469 C 199.761719 253.828125 199.382812 253.316406 198.980469 252.824219 C 198.578125 252.335938 198.152344 251.863281 197.699219 251.414062 C 197.25 250.964844 196.78125 250.535156 196.289062 250.132812 C 195.796875 249.730469 195.285156 249.351562 194.757812 248.996094 C 194.230469 248.644531 193.683594 248.316406 193.121094 248.019531 C 192.5625 247.71875 191.988281 247.445312 191.398438 247.203125 C 190.8125 246.960938 190.214844 246.746094 189.605469 246.5625 C 188.996094 246.375 188.378906 246.222656 187.753906 246.097656 C 187.132812 245.972656 186.503906 245.878906 185.871094 245.816406 C 185.238281 245.753906 184.601562 245.722656 183.964844 245.722656 L 89.132812 245.722656 C 91.261719 237.984375 94.632812 232.78125 98.285156 228.941406 C 105.058594 221.792969 114.910156 217.007812 128.335938 212.238281 C 131.054688 211.273438 134.070312 210.265625 137.257812 209.207031 C 147.945312 205.664062 160.640625 201.4375 170.882812 195.734375 C 185.910156 187.34375 199.289062 174.136719 203.109375 151.914062 C 207.460938 126.601562 201.371094 103.464844 185.769531 86.699219 C 170.433594 70.210938 147.992188 62.113281 123.613281 62.113281 C 93.527344 62.113281 74.152344 75.386719 62.730469 89.527344 C 56.714844 97.011719 52.25 105.328125 49.335938 114.480469 C 49.050781 115.390625 48.792969 116.308594 48.558594 117.230469 L 48.511719 117.480469 L 48.480469 117.589844 L 48.480469 117.667969 C 48.464844 117.699219 46.429688 126.789062 48.480469 117.683594 C 48.34375 118.304688 48.234375 118.929688 48.15625 119.558594 C 48.078125 120.191406 48.03125 120.824219 48.015625 121.460938 C 48 122.09375 48.015625 122.730469 48.0625 123.363281 C 48.109375 123.996094 48.1875 124.628906 48.296875 125.253906 C 48.40625 125.882812 48.542969 126.5 48.714844 127.113281 C 48.882812 127.726562 49.082031 128.328125 49.3125 128.921875 C 49.539062 129.515625 49.796875 130.097656 50.082031 130.664062 C 50.367188 131.230469 50.683594 131.785156 51.023438 132.320312 C 51.363281 132.859375 51.726562 133.378906 52.117188 133.878906 C 52.507812 134.378906 52.925781 134.863281 53.363281 135.320312 C 53.800781 135.78125 54.261719 136.222656 54.742188 136.636719 C 55.222656 137.050781 55.722656 137.441406 56.242188 137.808594 C 56.761719 138.175781 57.300781 138.515625 57.851562 138.828125 C 58.40625 139.144531 58.972656 139.429688 59.554688 139.6875 C 60.132812 139.945312 60.726562 140.171875 61.328125 140.371094 C 61.933594 140.574219 62.546875 140.742188 63.164062 140.882812 Z M 252.089844 181.5 C 251.644531 181.039062 251.175781 180.597656 250.683594 180.183594 C 250.195312 179.765625 249.683594 179.375 249.15625 179.011719 C 248.625 178.644531 248.078125 178.304688 247.515625 177.996094 C 246.953125 177.683594 246.375 177.402344 245.785156 177.148438 C 245.195312 176.894531 244.59375 176.667969 243.980469 176.472656 C 243.367188 176.28125 242.746094 176.117188 242.117188 175.984375 C 241.488281 175.851562 240.851562 175.75 240.210938 175.679688 C 239.574219 175.613281 238.933594 175.574219 238.289062 175.570312 C 237.644531 175.5625 237.003906 175.589844 236.363281 175.648438 C 235.722656 175.703125 235.085938 175.792969 234.453125 175.914062 C 233.824219 176.035156 233.199219 176.1875 232.582031 176.371094 C 231.964844 176.554688 231.359375 176.769531 230.765625 177.011719 C 230.167969 177.253906 229.585938 177.527344 229.019531 177.828125 C 228.449219 178.128906 227.898438 178.457031 227.363281 178.816406 C 226.828125 179.171875 226.308594 179.550781 225.8125 179.960938 C 225.316406 180.367188 224.839844 180.796875 224.382812 181.253906 C 223.929688 181.707031 223.496094 182.183594 223.089844 182.679688 C 222.683594 183.179688 222.300781 183.695312 221.945312 184.230469 C 221.585938 184.765625 221.257812 185.316406 220.957031 185.886719 C 220.65625 186.453125 220.382812 187.035156 220.140625 187.632812 C 219.894531 188.226562 219.683594 188.832031 219.5 189.449219 C 219.316406 190.066406 219.164062 190.6875 219.039062 191.320312 C 218.917969 191.953125 218.828125 192.589844 218.769531 193.230469 C 218.710938 193.871094 218.6875 194.511719 218.691406 195.15625 C 218.695312 195.796875 218.734375 196.4375 218.804688 197.078125 C 218.871094 197.71875 218.972656 198.351562 219.105469 198.980469 C 219.238281 199.613281 219.398438 200.234375 219.59375 200.847656 C 219.789062 201.460938 220.011719 202.0625 220.265625 202.652344 C 220.519531 203.242188 220.800781 203.820312 221.113281 204.382812 C 221.421875 204.945312 221.761719 205.492188 222.128906 206.023438 C 222.492188 206.550781 222.882812 207.0625 223.296875 207.550781 C 223.714844 208.042969 224.152344 208.511719 224.617188 208.957031 L 245.84375 230.183594 L 224.617188 251.425781 C 224.152344 251.875 223.714844 252.34375 223.296875 252.832031 C 222.882812 253.324219 222.492188 253.835938 222.125 254.363281 C 221.761719 254.894531 221.421875 255.4375 221.113281 256.003906 C 220.800781 256.566406 220.519531 257.140625 220.265625 257.734375 C 220.011719 258.324219 219.789062 258.925781 219.59375 259.539062 C 219.398438 260.152344 219.238281 260.773438 219.105469 261.402344 C 218.972656 262.035156 218.871094 262.667969 218.800781 263.308594 C 218.734375 263.945312 218.695312 264.589844 218.691406 265.230469 C 218.683594 265.875 218.710938 266.515625 218.769531 267.15625 C 218.828125 267.796875 218.917969 268.433594 219.039062 269.066406 C 219.160156 269.695312 219.3125 270.320312 219.496094 270.9375 C 219.679688 271.554688 219.894531 272.160156 220.136719 272.753906 C 220.382812 273.351562 220.65625 273.933594 220.957031 274.5 C 221.257812 275.070312 221.585938 275.621094 221.941406 276.15625 C 222.300781 276.691406 222.679688 277.207031 223.089844 277.707031 C 223.496094 278.203125 223.929688 278.679688 224.382812 279.132812 C 224.839844 279.589844 225.3125 280.019531 225.8125 280.425781 C 226.308594 280.835938 226.828125 281.214844 227.363281 281.570312 C 227.898438 281.929688 228.449219 282.257812 229.019531 282.558594 C 229.585938 282.859375 230.167969 283.132812 230.765625 283.375 C 231.359375 283.617188 231.964844 283.832031 232.582031 284.015625 C 233.199219 284.199219 233.824219 284.351562 234.453125 284.472656 C 235.085938 284.59375 235.722656 284.683594 236.363281 284.738281 C 237.003906 284.796875 237.644531 284.824219 238.289062 284.816406 C 238.933594 284.8125 239.574219 284.773438 240.210938 284.707031 C 240.851562 284.636719 241.488281 284.535156 242.117188 284.402344 C 242.746094 284.269531 243.367188 284.105469 243.980469 283.914062 C 244.59375 283.71875 245.195312 283.492188 245.785156 283.238281 C 246.375 282.984375 246.953125 282.703125 247.515625 282.390625 C 248.078125 282.082031 248.625 281.742188 249.15625 281.375 C 249.683594 281.011719 250.195312 280.621094 250.683594 280.203125 C 251.175781 279.785156 251.644531 279.347656 252.089844 278.882812 L 273.316406 257.660156 L 294.542969 278.882812 C 294.996094 279.320312 295.46875 279.734375 295.960938 280.128906 C 296.453125 280.519531 296.964844 280.886719 297.492188 281.226562 C 298.019531 281.566406 298.5625 281.882812 299.121094 282.171875 C 299.679688 282.460938 300.253906 282.722656 300.835938 282.957031 C 301.421875 283.1875 302.015625 283.394531 302.617188 283.570312 C 303.222656 283.746094 303.835938 283.890625 304.453125 284.007812 C 305.070312 284.121094 305.691406 284.207031 306.320312 284.265625 C 306.945312 284.320312 307.574219 284.34375 308.203125 284.339844 C 308.832031 284.335938 309.460938 284.296875 310.085938 284.230469 C 310.710938 284.164062 311.332031 284.070312 311.949219 283.941406 C 312.5625 283.816406 313.171875 283.660156 313.773438 283.472656 C 314.375 283.289062 314.964844 283.074219 315.546875 282.832031 C 316.125 282.589844 316.691406 282.316406 317.246094 282.019531 C 317.800781 281.722656 318.339844 281.398438 318.863281 281.046875 C 319.382812 280.695312 319.886719 280.320312 320.375 279.921875 C 320.859375 279.523438 321.324219 279.101562 321.769531 278.65625 C 322.214844 278.210938 322.636719 277.746094 323.039062 277.257812 C 323.4375 276.773438 323.8125 276.269531 324.164062 275.746094 C 324.515625 275.226562 324.839844 274.6875 325.136719 274.132812 C 325.4375 273.578125 325.707031 273.011719 325.949219 272.433594 C 326.195312 271.851562 326.410156 271.261719 326.59375 270.660156 C 326.78125 270.058594 326.9375 269.453125 327.0625 268.835938 C 327.191406 268.21875 327.289062 267.597656 327.355469 266.972656 C 327.421875 266.347656 327.457031 265.71875 327.460938 265.089844 C 327.46875 264.460938 327.441406 263.835938 327.386719 263.207031 C 327.332031 262.582031 327.246094 261.957031 327.132812 261.339844 C 327.015625 260.722656 326.871094 260.109375 326.695312 259.507812 C 326.519531 258.902344 326.316406 258.308594 326.082031 257.722656 C 325.847656 257.140625 325.589844 256.566406 325.300781 256.007812 C 325.011719 255.449219 324.695312 254.90625 324.355469 254.378906 C 324.015625 253.847656 323.648438 253.339844 323.257812 252.84375 C 322.867188 252.351562 322.453125 251.878906 322.015625 251.425781 L 300.789062 230.183594 L 322.015625 208.957031 C 322.453125 208.507812 322.867188 208.035156 323.257812 207.539062 C 323.648438 207.046875 324.015625 206.539062 324.355469 206.007812 C 324.699219 205.480469 325.011719 204.9375 325.300781 204.378906 C 325.589844 203.820312 325.851562 203.246094 326.082031 202.664062 C 326.316406 202.078125 326.519531 201.484375 326.695312 200.878906 C 326.871094 200.277344 327.015625 199.664062 327.132812 199.046875 C 327.246094 198.425781 327.332031 197.804688 327.390625 197.179688 C 327.445312 196.550781 327.46875 195.921875 327.464844 195.292969 C 327.457031 194.664062 327.421875 194.039062 327.355469 193.414062 C 327.289062 192.785156 327.191406 192.167969 327.066406 191.550781 C 326.9375 190.933594 326.78125 190.324219 326.59375 189.722656 C 326.410156 189.125 326.195312 188.53125 325.953125 187.953125 C 325.707031 187.371094 325.4375 186.804688 325.136719 186.25 C 324.839844 185.699219 324.515625 185.160156 324.164062 184.636719 C 323.8125 184.117188 323.4375 183.613281 323.039062 183.125 C 322.640625 182.640625 322.214844 182.175781 321.769531 181.730469 C 321.328125 181.285156 320.859375 180.863281 320.375 180.464844 C 319.890625 180.0625 319.386719 179.6875 318.863281 179.339844 C 318.339844 178.988281 317.800781 178.664062 317.246094 178.367188 C 316.695312 178.066406 316.125 177.796875 315.546875 177.554688 C 314.964844 177.3125 314.375 177.097656 313.773438 176.910156 C 313.171875 176.726562 312.566406 176.570312 311.949219 176.441406 C 311.332031 176.316406 310.710938 176.21875 310.085938 176.152344 C 309.460938 176.085938 308.832031 176.050781 308.203125 176.046875 C 307.574219 176.039062 306.945312 176.066406 306.320312 176.121094 C 305.695312 176.175781 305.070312 176.261719 304.453125 176.378906 C 303.835938 176.496094 303.222656 176.640625 302.617188 176.816406 C 302.015625 176.992188 301.421875 177.195312 300.835938 177.429688 C 300.253906 177.664062 299.679688 177.925781 299.121094 178.214844 C 298.5625 178.503906 298.019531 178.816406 297.492188 179.160156 C 296.964844 179.5 296.453125 179.867188 295.960938 180.257812 C 295.46875 180.648438 294.996094 181.0625 294.542969 181.5 L 273.316406 202.726562 Z M 252.089844 181.5 " fill-opacity="1" fill-rule="nonzero"/></svg>